<?xml version="1.0" encoding="utf-8"?>
<!-- Generator: Adobe Illustrator 19.0.0, SVG Export Plug-In . SVG Version: 6.00 Build 0)  -->
<svg version="1.1" id="Layer_1" xmlns="http://www.w3.org/2000/svg" xmlns:xlink="http://www.w3.org/1999/xlink" x="0px" y="0px"
	 viewBox="0 0 841.9 595.3" style="enable-background:new 0 0 841.9 595.3;" xml:space="preserve">
<style type="text/css">
	.st0{fill:#F8961F;}
	.st1{fill:none;stroke:#000000;stroke-miterlimit:10;}
	.st2{font-family:'MyriadPro-Regular';}
	.st3{font-size:48px;}
</style>
<rect id="XMLID_182_" x="631.4" y="446.5" class="st0" width="105.2" height="148.8"/>
<line id="XMLID_53_" class="st1" x1="420.9" y1="0" x2="420.9" y2="595.3"/>
<text id="XMLID_67_" transform="matrix(1 0 0 1 174.6367 318.7719)" class="st2 st3">A0</text>
<text id="XMLID_175_" transform="matrix(4.489659e-11 1 -1 4.489659e-11 603.4832 119.1473)" class="st2 st3">A1</text>
<text id="XMLID_177_" transform="matrix(1 0 0 1 499.122 462.7646)" class="st2 st3">A2</text>
<text id="XMLID_181_" transform="matrix(1 0 0 1 659.1143 543.7606)" class="st2 st3">A4</text>
<text id="XMLID_179_" transform="matrix(4.489659e-11 1 -1 4.489659e-11 721.9793 346.1365)" class="st2 st3">A3</text>
<text id="XMLID_183_" transform="matrix(4.489659e-11 1 -1 4.489659e-11 772.9774 459.4601)" class="st2 st3">A5</text>
<text id="XMLID_184_" transform="matrix(4.489659e-11 1 -1 4.489659e-11 772.9774 530.4556)" class="st2 st3">A5</text>
<rect id="XMLID_82_" class="st1" width="841.9" height="595.3"/>
<line id="XMLID_96_" class="st1" x1="420.9" y1="297.6" x2="841.9" y2="297.6"/>
<line id="XMLID_174_" class="st1" x1="631.4" y1="297.6" x2="631.4" y2="595.3"/>
<line id="XMLID_176_" class="st1" x1="631.4" y1="446.5" x2="841.9" y2="446.5"/>
<line id="XMLID_178_" class="st1" x1="736.7" y1="446.5" x2="736.7" y2="595.3"/>
<line id="XMLID_180_" class="st1" x1="736.7" y1="520.9" x2="841.9" y2="520.9"/>
</svg>
